<svg width="33" height="33" viewBox="0 0 33 33" fill="none" xmlns="http://www.w3.org/2000/svg">
<g clip-path="url(#clip0)">
<path d="M12.8038 30.0368C11.4201 30.0368 9.99575 29.9247 8.5629 29.7001C6.03923 29.3041 3.48455 27.984 2.76165 27.5888L0.865662 26.5522L2.91839 25.8771C5.16228 25.1393 6.52726 24.6816 8.21695 23.9648C6.52506 23.1454 5.22111 21.6715 4.59343 19.7663L4.11589 18.3166L4.50749 18.3764C4.13616 18.0021 3.84294 17.6222 3.61565 17.2768C2.8073 16.049 2.37933 14.5487 2.47039 13.2631L2.56024 11.9977L3.3178 12.2912C2.99822 11.6877 2.76727 11.0431 2.63152 10.3676C2.30071 8.72013 2.57757 6.96988 3.41131 5.43936L4.07122 4.22794L4.95378 5.288C7.74503 8.64102 11.2804 10.63 15.4764 11.2123C15.3051 10.0309 15.4335 8.89078 15.8585 7.86881C16.3534 6.67887 17.2338 5.66983 18.4037 4.95059C19.703 4.15201 21.2787 3.76505 22.8404 3.86099C24.4974 3.9628 26.0018 4.58365 27.1966 5.65763C27.7801 5.50601 28.21 5.34415 28.7911 5.1254C29.1407 4.99381 29.5372 4.84439 30.0333 4.67349L31.8614 4.04361L30.6693 7.4484C30.7479 7.4418 30.8289 7.43619 30.9136 7.43253L32.8658 7.34415L31.712 8.92105C31.6458 9.01138 31.629 9.03702 31.6055 9.07242C31.5125 9.21256 31.3968 9.38687 29.8131 11.5016C29.4166 12.0312 29.2186 12.7209 29.2554 13.444C29.3958 16.192 29.0587 18.6784 28.2528 20.8337C27.4906 22.8727 26.3094 24.6222 24.7425 26.0336C22.8036 27.7797 20.3312 28.9753 17.3937 29.5866C15.9528 29.8864 14.4054 30.0368 12.8038 30.0368Z" fill="#001021"/>
</g>
<defs>
<clipPath id="clip0">
<rect width="32" height="32" fill="white" transform="translate(0.865662 0.909092)"/>
</clipPath>
</defs>
</svg>
