<svg width="128" height="128" viewBox="0 0 128 128" fill="none" xmlns="http://www.w3.org/2000/svg">
<circle cx="64" cy="64" r="64" fill="#FE5F55"/>
<path d="M54.7567 51.844H60.6367C60.9447 51.844 61.0987 52.04 61.0987 52.432V59.824C61.0987 60.608 60.7067 61 59.9227 61H49.7587V57.01H53.6647C54.1127 57.01 54.3367 56.968 54.3367 56.884C54.3647 56.772 54.3787 56.646 54.3787 56.506V52.306C54.3787 52.082 54.4067 51.956 54.4627 51.928C54.5187 51.872 54.6167 51.844 54.7567 51.844ZM48.2887 61H43.8787C42.9267 61 42.2967 60.846 41.9887 60.538C41.7087 60.23 41.5687 59.586 41.5687 58.606V33.028C41.5687 32.048 41.7087 31.404 41.9887 31.096C42.2967 30.788 42.9267 30.634 43.8787 30.634H48.2887V61ZM80.2337 30.634H83.3837C85.7637 30.634 86.9537 31.992 86.9537 34.708V45.376C86.9537 47.896 85.7217 49.156 83.2577 49.156H77.4617V45.166H79.0997C79.6037 45.166 79.9117 45.082 80.0237 44.914C80.1637 44.718 80.2337 44.396 80.2337 43.948V30.634ZM75.7817 49.156H74.6057C74.1017 49.156 73.7797 49.254 73.6397 49.45C73.5277 49.618 73.4717 49.926 73.4717 50.374V61H69.9017C68.5297 61 67.6617 60.776 67.2977 60.328C66.9337 59.88 66.7517 58.76 66.7517 56.968V48.106C66.7517 46.874 66.9617 46.076 67.3817 45.712C67.8017 45.348 68.6837 45.166 70.0277 45.166H75.7817V49.156ZM85.9037 56.17C86.6037 56.17 86.9537 56.562 86.9537 57.346V61H75.1937L75.1517 56.17H85.9037ZM78.5537 34.624H74.5637C73.9757 34.624 73.6117 34.722 73.4717 34.918C73.3317 35.086 73.2617 35.408 73.2617 35.884V40.546H68.6417C67.6057 40.546 66.9897 40.462 66.7937 40.294C66.6257 40.126 66.5417 39.608 66.5417 38.74V35.128C66.5417 33.588 66.7657 32.454 67.2137 31.726C67.6897 30.998 68.7117 30.634 70.2797 30.634H78.5537V34.624ZM54.6727 66.634H57.8227C60.2027 66.634 61.3927 67.992 61.3927 70.708V81.376C61.3927 83.896 60.1607 85.156 57.6967 85.156H51.9007V81.166H53.5387C54.0427 81.166 54.3507 81.082 54.4627 80.914C54.6027 80.718 54.6727 80.396 54.6727 79.948V66.634ZM50.2207 85.156H49.0447C48.5407 85.156 48.2187 85.254 48.0787 85.45C47.9667 85.618 47.9107 85.926 47.9107 86.374V97H44.3407C42.9687 97 42.1007 96.776 41.7367 96.328C41.3727 95.88 41.1907 94.76 41.1907 92.968V84.106C41.1907 82.874 41.4007 82.076 41.8207 81.712C42.2407 81.348 43.1227 81.166 44.4667 81.166H50.2207V85.156ZM60.3427 92.17C61.0427 92.17 61.3927 92.562 61.3927 93.346V97H49.6327L49.5907 92.17H60.3427ZM52.9927 70.624H49.0027C48.4147 70.624 48.0507 70.722 47.9107 70.918C47.7707 71.086 47.7007 71.408 47.7007 71.884V76.546H43.0807C42.0447 76.546 41.4287 76.462 41.2327 76.294C41.0647 76.126 40.9807 75.608 40.9807 74.74V71.128C40.9807 69.588 41.2047 68.454 41.6527 67.726C42.1287 66.998 43.1507 66.634 44.7187 66.634H52.9927V70.624ZM82.1223 87.844H88.0023C88.3103 87.844 88.4643 88.04 88.4643 88.432V95.824C88.4643 96.608 88.0723 97 87.2883 97H77.1243V93.01H81.0303C81.4783 93.01 81.7023 92.968 81.7023 92.884C81.7303 92.772 81.7443 92.646 81.7443 92.506V88.306C81.7443 88.082 81.7723 87.956 81.8283 87.928C81.8843 87.872 81.9823 87.844 82.1223 87.844ZM75.6543 97H71.2443C70.2923 97 69.6623 96.846 69.3543 96.538C69.0743 96.23 68.9343 95.586 68.9343 94.606V69.028C68.9343 68.048 69.0743 67.404 69.3543 67.096C69.6623 66.788 70.2923 66.634 71.2443 66.634H75.6543V97Z" fill="#001021"/>
<path d="M49.7587 61H48.2587V62.5H49.7587V61ZM49.7587 57.01V55.51H48.2587V57.01H49.7587ZM54.3367 56.884L52.8815 56.5202L52.8367 56.6993V56.884H54.3367ZM54.4627 51.928L55.1335 53.2696L55.3513 53.1608L55.5234 52.9887L54.4627 51.928ZM48.2887 61V62.5H49.7887V61H48.2887ZM41.9887 60.538L40.8788 61.547L40.9028 61.5734L40.9281 61.5987L41.9887 60.538ZM41.9887 31.096L40.9281 30.0353L40.9028 30.0606L40.8788 30.087L41.9887 31.096ZM48.2887 30.634H49.7887V29.134H48.2887V30.634ZM54.7567 53.344H60.6367V50.344H54.7567V53.344ZM60.6367 53.344C60.557 53.344 60.4176 53.3314 60.253 53.2616C60.0794 53.188 59.9227 53.0692 59.8037 52.9177C59.6906 52.7737 59.6405 52.6376 59.6188 52.5548C59.6079 52.513 59.603 52.4809 59.6009 52.4615C59.5997 52.4515 59.5992 52.444 59.599 52.4393C59.5988 52.4368 59.5988 52.435 59.5988 52.4338C59.5987 52.4326 59.5987 52.432 59.5987 52.432H62.5987C62.5987 52.0804 62.5365 51.5401 62.1627 51.0643C61.7347 50.5196 61.1313 50.344 60.6367 50.344V53.344ZM59.5987 52.432V59.824H62.5987V52.432H59.5987ZM59.5987 59.824C59.5987 59.9848 59.5595 59.8299 59.7441 59.6453C59.9286 59.4608 60.0835 59.5 59.9227 59.5V62.5C60.5459 62.5 61.2889 62.3432 61.8654 61.7667C62.4419 61.1901 62.5987 60.4472 62.5987 59.824H59.5987ZM59.9227 59.5H49.7587V62.5H59.9227V59.5ZM51.2587 61V57.01H48.2587V61H51.2587ZM49.7587 58.51H53.6647V55.51H49.7587V58.51ZM53.6647 58.51C53.9108 58.51 54.192 58.5003 54.4452 58.4528C54.5579 58.4317 54.7894 58.3819 55.0301 58.2465C55.2593 58.1176 55.8367 57.6992 55.8367 56.884H52.8367C52.8367 56.1108 53.3861 55.7292 53.5593 55.6318C53.7441 55.5278 53.8916 55.5043 53.8923 55.5042C53.9214 55.4987 53.8666 55.51 53.6647 55.51V58.51ZM55.7919 57.2478C55.8552 56.9948 55.8787 56.7437 55.8787 56.506H52.8787C52.8787 56.5263 52.8777 56.5372 52.8774 56.5399C52.8771 56.5425 52.8777 56.5354 52.8815 56.5202L55.7919 57.2478ZM55.8787 56.506V52.306H52.8787V56.506H55.8787ZM55.8787 52.306C55.8787 52.2361 55.8849 52.2749 55.864 52.3689C55.8534 52.4164 55.8232 52.5383 55.7428 52.6857C55.6635 52.831 55.4833 53.0947 55.1335 53.2696L53.7919 50.5864C53.4141 50.7753 53.2094 51.0652 53.1091 51.2491C53.0077 51.435 52.96 51.6076 52.9354 51.7181C52.8866 51.9381 52.8787 52.1519 52.8787 52.306H55.8787ZM55.5234 52.9887C55.3266 53.1854 55.1178 53.2709 54.9903 53.3073C54.8659 53.3428 54.7781 53.344 54.7567 53.344V50.344C54.5002 50.344 53.8899 50.3795 53.4021 50.8673L55.5234 52.9887ZM48.2887 59.5H43.8787V62.5H48.2887V59.5ZM43.8787 59.5C43.4724 59.5 43.2064 59.466 43.0484 59.4274C42.8785 59.3859 42.9366 59.3645 43.0494 59.4773L40.9281 61.5987C41.3489 62.0195 41.8759 62.2291 42.336 62.3416C42.8081 62.457 43.3331 62.5 43.8787 62.5V59.5ZM43.0986 59.529C43.2105 59.652 43.1831 59.706 43.1395 59.5054C43.1004 59.3253 43.0687 59.0353 43.0687 58.606H40.0687C40.0687 59.1567 40.1071 59.6787 40.208 60.1426C40.3043 60.586 40.487 61.116 40.8788 61.547L43.0986 59.529ZM43.0687 58.606V33.028H40.0687V58.606H43.0687ZM43.0687 33.028C43.0687 32.5987 43.1004 32.3087 43.1395 32.1286C43.1831 31.928 43.2105 31.982 43.0986 32.105L40.8788 30.087C40.487 30.518 40.3043 31.048 40.208 31.4914C40.1071 31.9553 40.0687 32.4773 40.0687 33.028H43.0687ZM43.0494 32.1567C42.9366 32.2695 42.8785 32.2481 43.0484 32.2066C43.2064 32.168 43.4724 32.134 43.8787 32.134V29.134C43.3331 29.134 42.8081 29.177 42.336 29.2924C41.8759 29.4049 41.3489 29.6145 40.9281 30.0353L43.0494 32.1567ZM43.8787 32.134H48.2887V29.134H43.8787V32.134ZM46.7887 30.634V61H49.7887V30.634H46.7887ZM80.2337 30.634V29.134H78.7337V30.634H80.2337ZM77.4617 49.156H75.9617V50.656H77.4617V49.156ZM77.4617 45.166V43.666H75.9617V45.166H77.4617ZM80.0237 44.914L78.8031 44.0421L78.789 44.0618L78.7756 44.0819L80.0237 44.914ZM75.7817 49.156V50.656H77.2817V49.156H75.7817ZM73.6397 49.45L72.4191 48.5781L72.405 48.5978L72.3916 48.6179L73.6397 49.45ZM73.4717 61V62.5H74.9717V61H73.4717ZM67.2977 60.328L66.1335 61.2739L67.2977 60.328ZM67.3817 45.712L66.3993 44.5785V44.5785L67.3817 45.712ZM75.7817 45.166H77.2817V43.666H75.7817V45.166ZM86.9537 61V62.5H88.4537V61H86.9537ZM75.1937 61L73.6937 61.013L73.7066 62.5H75.1937V61ZM75.1517 56.17V54.67H73.6386L73.6517 56.183L75.1517 56.17ZM78.5537 34.624V36.124H80.0537V34.624H78.5537ZM73.4717 34.918L74.624 35.8783L74.6598 35.8353L74.6923 35.7899L73.4717 34.918ZM73.2617 40.546V42.046H74.7617V40.546H73.2617ZM66.7937 40.294L65.733 41.3547L65.7737 41.3954L65.8175 41.4329L66.7937 40.294ZM67.2137 31.726L65.9582 30.9051L65.9469 30.9223L65.9362 30.9399L67.2137 31.726ZM78.5537 30.634H80.0537V29.134H78.5537V30.634ZM80.2337 32.134H83.3837V29.134H80.2337V32.134ZM83.3837 32.134C84.2872 32.134 84.7065 32.3826 84.933 32.6411C85.1927 32.9374 85.4537 33.5361 85.4537 34.708H88.4537C88.4537 33.1639 88.1197 31.7256 87.1893 30.6639C86.2258 29.5644 84.8601 29.134 83.3837 29.134V32.134ZM85.4537 34.708V45.376H88.4537V34.708H85.4537ZM85.4537 45.376C85.4537 46.4131 85.2001 46.9139 84.9571 47.1623C84.7203 47.4045 84.2498 47.656 83.2577 47.656V50.656C84.7295 50.656 86.107 50.2775 87.1022 49.2597C88.0913 48.2481 88.4537 46.8589 88.4537 45.376H85.4537ZM83.2577 47.656H77.4617V50.656H83.2577V47.656ZM78.9617 49.156V45.166H75.9617V49.156H78.9617ZM77.4617 46.666H79.0997V43.666H77.4617V46.666ZM79.0997 46.666C79.4176 46.666 79.7688 46.6414 80.1033 46.5501C80.4142 46.4654 80.9265 46.2639 81.2717 45.746L78.7756 44.0819C78.8942 43.904 79.0331 43.7969 79.1312 43.738C79.2258 43.6812 79.2963 43.6607 79.314 43.6559C79.3405 43.6486 79.2858 43.666 79.0997 43.666V46.666ZM81.2443 45.7859C81.6655 45.1961 81.7337 44.477 81.7337 43.948H78.7337C78.7337 44.0216 78.7308 44.0799 78.7267 44.1246C78.7226 44.1696 78.7178 44.1959 78.7154 44.2069C78.713 44.2181 78.7144 44.207 78.7254 44.1798C78.7365 44.1525 78.7598 44.1027 78.8031 44.0421L81.2443 45.7859ZM81.7337 43.948V30.634H78.7337V43.948H81.7337ZM75.7817 47.656H74.6057V50.656H75.7817V47.656ZM74.6057 47.656C74.2715 47.656 73.9036 47.6867 73.5494 47.7945C73.1953 47.9023 72.7445 48.1225 72.4191 48.5781L74.8603 50.3219C74.6748 50.5815 74.455 50.6547 74.4229 50.6645C74.3907 50.6743 74.4358 50.656 74.6057 50.656V47.656ZM72.3916 48.6179C72.1769 48.94 72.0844 49.2825 72.0379 49.5387C71.9885 49.81 71.9717 50.095 71.9717 50.374H74.9717C74.9717 50.2925 74.9742 50.2268 74.9781 50.1751C74.9819 50.1228 74.9867 50.0907 74.9895 50.0753C74.9924 50.059 74.9916 50.0704 74.9806 50.1015C74.97 50.1315 74.9435 50.1985 74.8877 50.2821L72.3916 48.6179ZM71.9717 50.374V61H74.9717V50.374H71.9717ZM73.4717 59.5H69.9017V62.5H73.4717V59.5ZM69.9017 59.5C69.2828 59.5 68.8615 59.448 68.5965 59.3796C68.3123 59.3063 68.3574 59.2536 68.4618 59.3821L66.1335 61.2739C66.6019 61.8504 67.263 62.1337 67.8468 62.2844C68.4498 62.44 69.1485 62.5 69.9017 62.5V59.5ZM68.4618 59.3821C68.5397 59.4779 68.4511 59.4182 68.3687 58.9114C68.2958 58.4628 68.2517 57.8239 68.2517 56.968H65.2517C65.2517 57.9041 65.2985 58.7212 65.4076 59.3926C65.5072 60.0058 65.6916 60.7301 66.1335 61.2739L68.4618 59.3821ZM68.2517 56.968V48.106H65.2517V56.968H68.2517ZM68.2517 48.106C68.2517 47.5622 68.2994 47.1947 68.3598 46.9652C68.4231 46.7246 68.4681 46.7553 68.3641 46.8455L66.3993 44.5785C65.8752 45.0327 65.6052 45.6444 65.4585 46.2018C65.3089 46.7703 65.2517 47.4178 65.2517 48.106H68.2517ZM68.3641 46.8455C68.2951 46.9053 68.3321 46.8395 68.6613 46.7715C68.9668 46.7085 69.4129 46.666 70.0277 46.666V43.666C69.2984 43.666 68.6315 43.7145 68.055 43.8335C67.5022 43.9475 66.8882 44.1547 66.3993 44.5785L68.3641 46.8455ZM70.0277 46.666H75.7817V43.666H70.0277V46.666ZM74.2817 45.166V49.156H77.2817V45.166H74.2817ZM85.9037 57.67C85.9424 57.67 85.9109 57.6758 85.8384 57.6488C85.7571 57.6184 85.6577 57.5587 85.5723 57.463C85.4053 57.2761 85.4537 57.1459 85.4537 57.346H88.4537C88.4537 56.7621 88.327 56.0439 87.8101 55.465C87.2642 54.8536 86.5316 54.67 85.9037 54.67V57.67ZM85.4537 57.346V61H88.4537V57.346H85.4537ZM86.9537 59.5H75.1937V62.5H86.9537V59.5ZM76.6936 60.987L76.6516 56.157L73.6517 56.183L73.6937 61.013L76.6936 60.987ZM75.1517 57.67H85.9037V54.67H75.1517V57.67ZM78.5537 33.124H74.5637V36.124H78.5537V33.124ZM74.5637 33.124C74.2027 33.124 73.819 33.1523 73.4597 33.2491C73.1214 33.3401 72.6093 33.5447 72.2511 34.0461L74.6923 35.7899C74.5808 35.9458 74.4567 36.0371 74.3745 36.085C74.2951 36.1313 74.2416 36.1454 74.2396 36.1459C74.2357 36.147 74.2589 36.1406 74.3183 36.1345C74.3763 36.1285 74.4569 36.124 74.5637 36.124V33.124ZM72.3193 33.9577C72.0361 34.2976 71.9109 34.6795 71.8484 34.9669C71.7831 35.2674 71.7617 35.5817 71.7617 35.884H74.7617C74.7617 35.8009 74.7648 35.7359 74.769 35.6869C74.7734 35.6374 74.7784 35.6113 74.7799 35.6041C74.7817 35.5961 74.7774 35.6196 74.7585 35.6638C74.7396 35.7079 74.6996 35.7875 74.624 35.8783L72.3193 33.9577ZM71.7617 35.884V40.546H74.7617V35.884H71.7617ZM73.2617 39.046H68.6417V42.046H73.2617V39.046ZM68.6417 39.046C68.1532 39.046 67.8167 39.0256 67.6053 38.9968C67.4995 38.9823 67.4595 38.9702 67.464 38.9717C67.4681 38.9729 67.4983 38.9824 67.5451 39.0052C67.59 39.0271 67.674 39.0729 67.7698 39.1551L65.8175 41.4329C66.0905 41.6669 66.3884 41.779 66.5748 41.8368C66.7824 41.9013 66.9979 41.9417 67.2 41.9692C67.6046 42.0244 68.0941 42.046 68.6417 42.046V39.046ZM67.8543 39.2333C67.9457 39.3248 68.0025 39.4104 68.0348 39.4666C68.0675 39.5234 68.0845 39.5663 68.0914 39.5851C68.1037 39.6187 68.097 39.6115 68.0853 39.5394C68.0618 39.3942 68.0417 39.1383 68.0417 38.74H65.0417C65.0417 39.2097 65.0635 39.6468 65.124 40.0196C65.1543 40.2065 65.2001 40.4145 65.2754 40.6196C65.3455 40.8104 65.4768 41.0985 65.733 41.3547L67.8543 39.2333ZM68.0417 38.74V35.128H65.0417V38.74H68.0417ZM68.0417 35.128C68.0417 33.6738 68.264 32.8813 68.4911 32.5121L65.9362 30.9399C65.2673 32.0267 65.0417 33.5022 65.0417 35.128H68.0417ZM68.4691 32.5469C68.5047 32.4925 68.8203 32.134 70.2797 32.134V29.134C68.6031 29.134 66.8747 29.5035 65.9582 30.9051L68.4691 32.5469ZM70.2797 32.134H78.5537V29.134H70.2797V32.134ZM77.0537 30.634V34.624H80.0537V30.634H77.0537ZM54.6727 66.634V65.134H53.1727V66.634H54.6727ZM51.9007 85.156H50.4007V86.656H51.9007V85.156ZM51.9007 81.166V79.666H50.4007V81.166H51.9007ZM54.4627 80.914L53.2421 80.0421L53.2281 80.0618L53.2146 80.0819L54.4627 80.914ZM50.2207 85.156V86.656H51.7207V85.156H50.2207ZM48.0787 85.45L46.8581 84.5781L46.8441 84.5978L46.8306 84.618L48.0787 85.45ZM47.9107 97V98.5H49.4107V97H47.9107ZM41.7367 96.328L40.5725 97.2739L41.7367 96.328ZM41.8207 81.712L40.8383 80.5785H40.8383L41.8207 81.712ZM50.2207 81.166H51.7207V79.666H50.2207V81.166ZM61.3927 97V98.5H62.8927V97H61.3927ZM49.6327 97L48.1328 97.013L48.1457 98.5H49.6327V97ZM49.5907 92.17V90.67H48.0776L48.0908 92.183L49.5907 92.17ZM52.9927 70.624V72.124H54.4927V70.624H52.9927ZM47.9107 70.918L49.0631 71.8783L49.0988 71.8353L49.1313 71.7899L47.9107 70.918ZM47.7007 76.546V78.046H49.2007V76.546H47.7007ZM41.2327 76.294L40.1721 77.3547L40.2128 77.3954L40.2565 77.4329L41.2327 76.294ZM41.6527 67.726L40.3973 66.9051L40.386 66.9223L40.3752 66.9399L41.6527 67.726ZM52.9927 66.634H54.4927V65.134H52.9927V66.634ZM54.6727 68.134H57.8227V65.134H54.6727V68.134ZM57.8227 68.134C58.7262 68.134 59.1456 68.3826 59.3721 68.6411C59.6317 68.9374 59.8927 69.5361 59.8927 70.708H62.8927C62.8927 69.1639 62.5587 67.7256 61.6284 66.6639C60.6649 65.5644 59.2992 65.134 57.8227 65.134V68.134ZM59.8927 70.708V81.376H62.8927V70.708H59.8927ZM59.8927 81.376C59.8927 82.4131 59.6391 82.9139 59.3962 83.1623C59.1594 83.4045 58.6889 83.656 57.6967 83.656V86.656C59.1686 86.656 60.546 86.2775 61.5412 85.2597C62.5303 84.2481 62.8927 82.8589 62.8927 81.376H59.8927ZM57.6967 83.656H51.9007V86.656H57.6967V83.656ZM53.4007 85.156V81.166H50.4007V85.156H53.4007ZM51.9007 82.666H53.5387V79.666H51.9007V82.666ZM53.5387 82.666C53.8566 82.666 54.2079 82.6414 54.5424 82.5501C54.8533 82.4654 55.3656 82.2639 55.7108 81.746L53.2146 80.0819C53.3333 79.904 53.4721 79.7969 53.5702 79.738C53.6649 79.6812 53.7353 79.6607 53.753 79.6559C53.7796 79.6486 53.7248 79.666 53.5387 79.666V82.666ZM55.6833 81.7859C56.1046 81.1961 56.1727 80.477 56.1727 79.948H53.1727C53.1727 80.0216 53.1698 80.0799 53.1658 80.1246C53.1617 80.1696 53.1568 80.1959 53.1545 80.2069C53.152 80.2181 53.1535 80.207 53.1645 80.1798C53.1756 80.1525 53.1988 80.1027 53.2421 80.0421L55.6833 81.7859ZM56.1727 79.948V66.634H53.1727V79.948H56.1727ZM50.2207 83.656H49.0447V86.656H50.2207V83.656ZM49.0447 83.656C48.7106 83.656 48.3427 83.6867 47.9885 83.7945C47.6343 83.9023 47.1836 84.1225 46.8581 84.5781L49.2993 86.3219C49.1139 86.5815 48.8941 86.6547 48.862 86.6645C48.8298 86.6743 48.8748 86.656 49.0447 86.656V83.656ZM46.8306 84.618C46.616 84.94 46.5235 85.2825 46.4769 85.5387C46.4276 85.81 46.4107 86.095 46.4107 86.374H49.4107C49.4107 86.2925 49.4133 86.2268 49.4171 86.1751C49.421 86.1228 49.4257 86.0907 49.4285 86.0753C49.4315 86.059 49.4307 86.0704 49.4197 86.1015C49.4091 86.1315 49.3825 86.1985 49.3268 86.2821L46.8306 84.618ZM46.4107 86.374V97H49.4107V86.374H46.4107ZM47.9107 95.5H44.3407V98.5H47.9107V95.5ZM44.3407 95.5C43.7219 95.5 43.3006 95.448 43.0355 95.3796C42.7514 95.3063 42.7965 95.2536 42.9009 95.3821L40.5725 97.2739C41.041 97.8504 41.7021 98.1338 42.2859 98.2844C42.8888 98.44 43.5875 98.5 44.3407 98.5V95.5ZM42.9009 95.3821C42.9787 95.4779 42.8901 95.4182 42.8078 94.9114C42.7349 94.4628 42.6907 93.8239 42.6907 92.968H39.6907C39.6907 93.9041 39.7375 94.7212 39.8466 95.3926C39.9463 96.0058 40.1307 96.7301 40.5725 97.2739L42.9009 95.3821ZM42.6907 92.968V84.106H39.6907V92.968H42.6907ZM42.6907 84.106C42.6907 83.5622 42.7384 83.1947 42.7988 82.9652C42.8622 82.7246 42.9072 82.7553 42.8031 82.8455L40.8383 80.5785C40.3142 81.0327 40.0443 81.6444 39.8976 82.2018C39.748 82.7703 39.6907 83.4178 39.6907 84.106H42.6907ZM42.8031 82.8455C42.7342 82.9053 42.7711 82.8395 43.1004 82.7715C43.4058 82.7085 43.852 82.666 44.4667 82.666V79.666C43.7374 79.666 43.0706 79.7145 42.4941 79.8335C41.9413 79.9475 41.3272 80.1547 40.8383 80.5785L42.8031 82.8455ZM44.4667 82.666H50.2207V79.666H44.4667V82.666ZM48.7207 81.166V85.156H51.7207V81.166H48.7207ZM60.3427 93.67C60.3815 93.67 60.35 93.6758 60.2775 93.6488C60.1962 93.6184 60.0967 93.5587 60.0113 93.463C59.8444 93.2761 59.8927 93.146 59.8927 93.346H62.8927C62.8927 92.7621 62.7661 92.0439 62.2491 91.465C61.7033 90.8536 60.9707 90.67 60.3427 90.67V93.67ZM59.8927 93.346V97H62.8927V93.346H59.8927ZM61.3927 95.5H49.6327V98.5H61.3927V95.5ZM51.1327 96.987L51.0907 92.157L48.0908 92.183L48.1328 97.013L51.1327 96.987ZM49.5907 93.67H60.3427V90.67H49.5907V93.67ZM52.9927 69.124H49.0027V72.124H52.9927V69.124ZM49.0027 69.124C48.6417 69.124 48.2581 69.1523 47.8988 69.2491C47.5605 69.3401 47.0483 69.5447 46.6901 70.0461L49.1313 71.7899C49.0199 71.9458 48.8958 72.0371 48.8135 72.085C48.7341 72.1313 48.6806 72.1454 48.6787 72.1459C48.6748 72.147 48.698 72.1406 48.7573 72.1345C48.8153 72.1285 48.8959 72.124 49.0027 72.124V69.124ZM46.7584 69.9577C46.4751 70.2976 46.3499 70.6795 46.2875 70.9669C46.2221 71.2674 46.2007 71.5817 46.2007 71.884H49.2007C49.2007 71.8009 49.2038 71.7359 49.2081 71.687C49.2125 71.6374 49.2174 71.6113 49.219 71.6041C49.2207 71.5961 49.2165 71.6196 49.1976 71.6638C49.1787 71.7079 49.1387 71.7875 49.0631 71.8783L46.7584 69.9577ZM46.2007 71.884V76.546H49.2007V71.884H46.2007ZM47.7007 75.046H43.0807V78.046H47.7007V75.046ZM43.0807 75.046C42.5923 75.046 42.2557 75.0256 42.0444 74.9968C41.9385 74.9823 41.8985 74.9702 41.9031 74.9717C41.9071 74.9729 41.9374 74.9824 41.9842 75.0052C42.029 75.0271 42.113 75.0729 42.2089 75.1551L40.2565 77.4329C40.5295 77.6669 40.8274 77.779 41.0139 77.8368C41.2214 77.9013 41.4369 77.9417 41.639 77.9692C42.0437 78.0244 42.5332 78.046 43.0807 78.046V75.046ZM42.2934 75.2333C42.3848 75.3248 42.4415 75.4104 42.4738 75.4665C42.5065 75.5234 42.5235 75.5663 42.5305 75.5851C42.5428 75.6187 42.5361 75.6115 42.5244 75.5394C42.5008 75.3942 42.4807 75.1383 42.4807 74.74H39.4807C39.4807 75.2097 39.5026 75.6468 39.5631 76.0196C39.5934 76.2065 39.6391 76.4145 39.7145 76.6196C39.7846 76.8104 39.9159 77.0985 40.1721 77.3547L42.2934 75.2333ZM42.4807 74.74V71.128H39.4807V74.74H42.4807ZM42.4807 71.128C42.4807 69.6738 42.7031 68.8813 42.9302 68.5121L40.3752 66.9399C39.7064 68.0267 39.4807 69.5022 39.4807 71.128H42.4807ZM42.9082 68.5469C42.9437 68.4925 43.2593 68.134 44.7187 68.134V65.134C43.0421 65.134 41.3137 65.5035 40.3973 66.9051L42.9082 68.5469ZM44.7187 68.134H52.9927V65.134H44.7187V68.134ZM51.4927 66.634V70.624H54.4927V66.634H51.4927ZM77.1243 97H75.6243V98.5H77.1243V97ZM77.1243 93.01V91.51H75.6243V93.01H77.1243ZM81.7023 92.884L80.2471 92.5202L80.2023 92.6993V92.884H81.7023ZM81.8283 87.928L82.4992 89.2696L82.7169 89.1608L82.889 88.9887L81.8283 87.928ZM75.6543 97V98.5H77.1543V97H75.6543ZM69.3543 96.538L68.2444 97.547L68.2684 97.5734L68.2937 97.5987L69.3543 96.538ZM69.3543 67.096L68.2937 66.0353L68.2684 66.0606L68.2444 66.087L69.3543 67.096ZM75.6543 66.634H77.1543V65.134H75.6543V66.634ZM82.1223 89.344H88.0023V86.344H82.1223V89.344ZM88.0023 89.344C87.9226 89.344 87.7832 89.3314 87.6186 89.2616C87.445 89.188 87.2884 89.0692 87.1694 88.9177C87.0562 88.7737 87.0061 88.6376 86.9844 88.5548C86.9735 88.513 86.9687 88.4809 86.9665 88.4615C86.9654 88.4515 86.9648 88.444 86.9646 88.4393C86.9645 88.4368 86.9644 88.435 86.9644 88.4338C86.9643 88.4326 86.9643 88.432 86.9643 88.432H89.9643C89.9643 88.0804 89.9022 87.5401 89.5283 87.0643C89.1004 86.5196 88.4969 86.344 88.0023 86.344V89.344ZM86.9643 88.432V95.824H89.9643V88.432H86.9643ZM86.9643 95.824C86.9643 95.9848 86.9252 95.8299 87.1097 95.6453C87.2942 95.4608 87.4491 95.5 87.2883 95.5V98.5C87.9116 98.5 88.6545 98.3432 89.231 97.7667C89.8075 97.1901 89.9643 96.4472 89.9643 95.824H86.9643ZM87.2883 95.5H77.1243V98.5H87.2883V95.5ZM78.6243 97V93.01H75.6243V97H78.6243ZM77.1243 94.51H81.0303V91.51H77.1243V94.51ZM81.0303 94.51C81.2764 94.51 81.5576 94.5003 81.8108 94.4528C81.9235 94.4317 82.155 94.3819 82.3957 94.2465C82.6249 94.1176 83.2023 93.6992 83.2023 92.884H80.2023C80.2023 92.1108 80.7518 91.7292 80.925 91.6318C81.1097 91.5278 81.2572 91.5043 81.2579 91.5042C81.2871 91.4987 81.2323 91.51 81.0303 91.51V94.51ZM83.1576 93.2478C83.2208 92.9948 83.2443 92.7437 83.2443 92.506H80.2443C80.2443 92.5263 80.2433 92.5372 80.243 92.5399C80.2427 92.5425 80.2433 92.5354 80.2471 92.5202L83.1576 93.2478ZM83.2443 92.506V88.306H80.2443V92.506H83.2443ZM83.2443 88.306C83.2443 88.2361 83.2505 88.2749 83.2296 88.3689C83.2191 88.4164 83.1888 88.5383 83.1084 88.6857C83.0292 88.831 82.849 89.0947 82.4992 89.2696L81.1575 86.5864C80.7797 86.7753 80.575 87.0652 80.4748 87.2491C80.3734 87.435 80.3256 87.6076 80.3011 87.7181C80.2522 87.9381 80.2443 88.1519 80.2443 88.306H83.2443ZM82.889 88.9887C82.6923 89.1854 82.4834 89.2709 82.3559 89.3073C82.2315 89.3428 82.1437 89.344 82.1223 89.344V86.344C81.8658 86.344 81.2556 86.3795 80.7677 86.8673L82.889 88.9887ZM75.6543 95.5H71.2443V98.5H75.6543V95.5ZM71.2443 95.5C70.838 95.5 70.572 95.466 70.414 95.4274C70.2441 95.3859 70.3022 95.3645 70.415 95.4773L68.2937 97.5987C68.7145 98.0195 69.2416 98.2291 69.7017 98.3416C70.1737 98.457 70.6987 98.5 71.2443 98.5V95.5ZM70.4643 95.529C70.5761 95.652 70.5487 95.706 70.5051 95.5054C70.466 95.3253 70.4343 95.0353 70.4343 94.606H67.4343C67.4343 95.1567 67.4727 95.6787 67.5736 96.1426C67.67 96.586 67.8526 97.116 68.2444 97.547L70.4643 95.529ZM70.4343 94.606V69.028H67.4343V94.606H70.4343ZM70.4343 69.028C70.4343 68.5987 70.466 68.3087 70.5051 68.1286C70.5487 67.928 70.5761 67.982 70.4643 68.105L68.2444 66.087C67.8526 66.518 67.67 67.048 67.5736 67.4914C67.4727 67.9553 67.4343 68.4773 67.4343 69.028H70.4343ZM70.415 68.1567C70.3022 68.2695 70.2441 68.2481 70.414 68.2066C70.572 68.168 70.838 68.134 71.2443 68.134V65.134C70.6987 65.134 70.1737 65.177 69.7017 65.2924C69.2416 65.4049 68.7145 65.6145 68.2937 66.0353L70.415 68.1567ZM71.2443 68.134H75.6543V65.134H71.2443V68.134ZM74.1543 66.634V97H77.1543V66.634H74.1543Z" fill="#001021"/>
</svg>
